<svg id="visual" viewBox="0 0 900 450" width="900" height="450" xmlns="http://www.w3.org/2000/svg" xmlns:xlink="http://www.w3.org/1999/xlink" version="1.1"><path d="M0 355L18.8 352.2C37.7 349.3 75.3 343.7 112.8 347.3C150.3 351 187.7 364 225.2 371.7C262.7 379.3 300.3 381.7 337.8 376.8C375.3 372 412.7 360 450.2 354.8C487.7 349.7 525.3 351.3 562.8 354.8C600.3 358.3 637.7 363.7 675.2 361.3C712.7 359 750.3 349 787.8 346.3C825.3 343.7 862.7 348.3 881.3 350.7L900 353L900 451L881.3 451C862.7 451 825.3 451 787.8 451C750.3 451 712.7 451 675.2 451C637.7 451 600.3 451 562.8 451C525.3 451 487.7 451 450.2 451C412.7 451 375.3 451 337.8 451C300.3 451 262.7 451 225.2 451C187.7 451 150.3 451 112.8 451C75.3 451 37.7 451 18.8 451L0 451Z" fill="#F2EDF9" stroke-linecap="round" stroke-linejoin="miter"></path></svg>